HIERARCHY
ROOT ui
{
	 OFFSET 0 0 0
	 CHANNELS 3 XPosition YPosition Z Position
	 EndSite
	 {
	 OFFSET 0 -1 0
	 }
}
ROOT li
{
	 OFFSET 0 0 0
	 CHANNELS 3 XPosition YPosition Z Position
	 EndSite
	 {
	 OFFSET 0 -1 0
	 }
}
ROOT ul
{
	 OFFSET 0 0 0
	 CHANNELS 3 XPosition YPosition Z Position
	 EndSite
	 {
	 OFFSET 0 -1 0
	 }
}
ROOT ll
{
	 OFFSET 0 0 0
	 CHANNELS 3 XPosition YPosition Z Position
	 EndSite
	 {
	 OFFSET 0 -1 0
	 }
}
ROOT tt
{
	 OFFSET 0 0 0
	 CHANNELS 3 XPosition YPosition Z Position
	 EndSite
	 {
	 OFFSET 0 -1 0
	 }
}
ROOT tb
{
	 OFFSET 0 0 0
	 CHANNELS 3 XPosition YPosition Z Position
	 EndSite
	 {
	 OFFSET 0 -1 0
	 }
}
ROOT td
{
	 OFFSET 0 0 0
	 CHANNELS 3 XPosition YPosition Z Position
	 EndSite
	 {
	 OFFSET 0 -1 0
	 }
}
ROOT v
{
	 OFFSET 0 0 0
	 CHANNELS 3 XPosition YPosition Z Position
	 EndSite
	 {
	 OFFSET 0 -1 0
	 }
}
ROOT bn
{
	 OFFSET 0 0 0
	 CHANNELS 3 XPosition YPosition Z Position
	 EndSite
	 {
	 OFFSET 0 -1 0
	 }
}
MOTION
Frames: 29
Frame Time: 0.002
0.024602989196777343	-5.132669806480408E-4	0		0.4919034729003906	-2.378021728515625	0		-1.0477745361328126	0.24209426879882812	0		-0.42238330078125	-2.71292724609375	0		1.6312518310546875	-0.2943865661621094	0		3.212123779296875	0.07321770477294921	0		4.475998046875	0.1846920166015625	0		5.8695849609375	0.3116033935546875	0		-0.22404690551757814	5.975044921875	0		
0.02733448028564453	0.002614722967147827	0		0.5246438598632812	-2.374358154296875	0		-1.0389661865234374	0.25013023376464844	0		-0.415578369140625	-2.704861083984375	0		1.6339984130859375	-0.29026068115234377	0		3.23366748046875	0.06404940032958985	0		4.45957763671875	0.17810940551757812	0		5.8842822265625	0.30268240356445314	0		-0.2082167510986328	5.9839716796875	0		
0.031101716995239257	0.006762957096099854	0		0.5035821228027344	-2.3588251953125	0		-1.0443212890625	0.24641949462890625	0		-0.42470367431640627	-2.69351220703125	0		1.609876953125	-0.2786817626953125	0		3.211515380859375	0.07359626007080078	0		4.46618994140625	0.1722086181640625	0		5.88407177734375	0.30303790283203125	0		-0.21045907592773438	5.987212890625	0		
0.02370664405822754	1.2075299769639968E-4	0		0.5272130126953125	-2.363947265625	0		-1.04460888671875	0.2466687774658203	0		-0.4270234375	-2.695232177734375	0		1.60246630859375	-0.28632464599609375	0		3.194796630859375	0.046094078063964844	0		4.44771875	0.1607347869873047	0		5.874474609375	0.284782958984375	0		-0.21074365234375	5.98746142578125	0		
-0.05356951141357422	0.0025996339321136476	0		0.4729489440917969	-2.36082421875	0		-1.04984716796875	0.25103428649902343	0		-0.4252943115234375	-2.692974853515625	0		1.5931973876953125	-0.28389776611328127	0		3.205401611328125	0.04021223831176758	0		4.44254248046875	0.16909834289550782	0		5.8772119140625	0.3007402648925781	0		-0.19213790893554689	5.98145703125	0		
0.020009193420410156	-0.003215043067932129	0		0.5026560668945312	-2.357959716796875	0		-1.0501822509765626	0.2513634948730469	0		-0.45651812744140624	-2.685167236328125	0		1.59469189453125	-0.29459881591796877	0		3.197912841796875	0.030649879455566405	0		4.43688330078125	0.14850607299804688	0		5.870521484375	0.2963583679199219	0		-0.21040763854980468	5.98606396484375	0		
-0.05429259872436523	0.0032988510131835938	0		0.4783315734863281	-2.353218994140625	0		-1.0524306640625	0.26076412963867185	0		-0.4277254333496094	-2.67324658203125	0		1.59247412109375	-0.2831998291015625	0		3.2115078125	0.02980203628540039	0		4.43649560546875	0.14887394714355467	0		5.88587890625	0.28775595092773437	0		-0.24386578369140624	5.9819453125	0		
0.02222760772705078	0.001520359992980957	0		0.5277594604492187	-2.360579833984375	0		-1.052885498046875	0.2611774597167969	0		-0.4281837158203125	-2.672833984375	0		1.5818187255859375	-0.2956334228515625	0		3.212572998046875	-8.169149756431579E-4	0		4.43604052734375	0.14928076171875	0		5.88208740234375	0.30415869140625	0		-0.21124041748046876	5.9868466796875	0		
-0.05528018951416016	0.004165379047393799	0		0.5012713928222656	-2.35672509765625	0		-1.0534173583984374	0.26163397216796874	0		-0.4395814208984375	-2.6632099609375	0		1.58128564453125	-0.29518255615234373	0		3.23613037109375	0.005258528232574463	0		4.43710595703125	0.12369766998291015	0		5.88464892578125	0.31865399169921876	0		-0.22592849731445314	5.97651904296875	0		
0.01801778221130371	-0.001482427954673767	0		0.52659814453125	-2.35963232421875	0		-1.0648763427734376	0.27230267333984376	0		-0.4402061767578125	-2.662712158203125	0		1.576607421875	-0.29862930297851564	0		3.20425537109375	-0.010774530410766602	0		4.43649072265625	0.1241789779663086	0		5.889046875	0.29507382202148436	0		-0.2085883331298828	5.97273828125	0		
-0.060658130645751956	0.0012618099451065063	0		0.5087952575683594	-2.364833740234375	0		-1.0505311279296874	0.27561273193359376	0		-0.42599887084960936	-2.667404052734375	0		1.5858731689453125	-0.3002539978027344	0		3.2152900390625	-0.027436187744140625	0		4.42657470703125	0.11083600616455078	0		5.8828193359375	0.29270913696289064	0		-0.22721176147460936	5.9765546875	0		
0.022642433166503908	0.006538663864135742	0		0.50524560546875	-2.34821484375	0		-1.037266845703125	0.2789801025390625	0		-0.46243820190429685	-2.643269287109375	0		1.5989478759765625	-0.30890240478515624	0		3.233257568359375	-0.04317182540893555	0		4.4284521484375	0.08934087371826172	0		5.89302490234375	0.303618896484375	0		-0.22500177001953126	5.974087890625	0		
-0.05823442840576172	0.006394071102142334	0		0.5023237915039063	-2.35057177734375	0		-0.9790496215820312	0.28369061279296875	0		-0.4412724609375	-2.639990234375	0		1.589121826171875	-0.30616070556640623	0		3.229464111328125	-0.0385372428894043	0		4.433720703125	0.09782537078857421	0		5.8942998046875	0.2647322387695312	0		-0.22875950622558594	5.977751953125	0		
0.01782512092590332	0.004853229999542236	0		0.49732122802734374	-2.353862548828125	0		-1.0549378662109374	0.2865155334472656	0		-0.44017034912109376	-2.636364990234375	0		1.58514111328125	-0.3094788818359375	0		3.206256103515625	-0.05657673263549805	0		4.42562109375	0.0865395736694336	0		5.8901787109375	0.28145254516601564	0		-0.2106907501220703	5.9731123046875	0		
0.013804198265075684	0.0015836260318756103	0		0.5222811279296875	-2.356588623046875	0		-0.9809178466796875	0.2850496826171875	0		-0.44116455078125	-2.635675537109375	0		1.5949747314453124	-0.3219853210449219	0		3.2419345703125	-0.07950679016113281	0		4.4254609375	0.07415068054199218	0		5.8924462890625	0.2979610595703125	0		-0.21157101440429688	5.973798828125	0		
0.012818667411804199	0.0022934329509735106	0		0.49733837890625	-2.350514892578125	0		-1.0518282470703124	0.2908620300292969	0		-0.4622209167480469	-2.6366474609375	0		1.6029517822265624	-0.32344033813476564	0		3.255635498046875	-0.09907918548583984	0		4.41835302734375	0.06688401794433593	0		5.8901611328125	0.27486279296875	0		-0.24456581115722656	5.968009765625	0		
0.029663719177246094	-0.007254852771759033	0		0.49832705688476564	-2.347824951171875	0		-0.9687058715820313	0.2983056335449219	0		-0.42322674560546875	-2.6335302734375	0		1.6019483642578125	-0.32274029541015625	0		3.23279443359375	-0.08806980895996094	0		4.42712255859375	0.052376667022705076	0		5.8923896484375	0.2896629943847656	0		-0.2795384521484375	5.96327490234375	0		
0.010822465896606445	0.003768976926803589	0		0.4972757568359375	-2.347090576171875	0		-1.0597340087890625	0.29747442626953124	0		-0.46806109619140623	-2.618092041015625	0		1.5978802490234374	-0.3259833984375	0		3.25137060546875	-0.11470459747314453	0		4.42203173828125	0.04708642196655274	0		5.8994873046875	0.285239501953125	0		-0.21322576904296875	5.9749814453125	0		
0.009827391624450683	0.004523311138153076	0		0.5201400756835938	-2.351722412109375	0		-0.9916519775390625	0.3021791687011719	0		-0.43417379760742186	-2.62087109375	0		1.59281494140625	-0.32920648193359375	0		3.261277587890625	-0.12020338439941407	0		4.41492919921875	0.040823169708251957	0		5.899466796875	0.2827989501953125	0		-0.24619009399414063	5.96824169921875	0		
0.019570671081542968	-0.011888607978820801	0		0.49110281372070314	-2.34954150390625	0		-1.066624267578125	0.30412158203125	0		-0.43523770141601564	-2.6201005859375	0		1.5887535400390624	-0.3324459533691406	0		3.239130615234375	-0.12920799255371093	0		4.42573583984375	0.028270719528198242	0		5.8987587890625	0.2838219909667969	0		-0.21489031982421875	5.976505859375	0		
0.0078512601852417	0.006037087917327881	0		0.49207501220703126	-2.34683203125	0		-1.0535562744140625	0.3076910400390625	0		-0.4990936584472656	-2.605346435546875	0		1.6085037841796874	-0.34806549072265625	0		3.2539501953125	-0.14080055236816405	0		4.4186259765625	0.020985570907592774	0		5.90239892578125	0.29503192138671874	0		-0.247814208984375	5.9697705078125	0		
-0.05226991653442383	-0.001287376046180725	0		0.47016970825195314	-2.33577099609375	0		-1.0454091796875	0.3163326416015625	0		-0.45809368896484376	-2.600240478515625	0		1.6075048828125	-0.3473694458007813	0		3.271704833984375	-0.156454833984375	0		4.42740234375	0.006433990001678467	0		5.90950390625	0.2905029602050781	0		-0.23246571350097656	5.97927587890625	0		
0.023712993621826172	-0.002759061098098755	0		0.5459301147460938	-2.346259765625	0		-0.9813822631835938	0.31708383178710936	0		-0.4920929870605469	-2.59396923828125	0		1.5993760986328125	-0.35457705688476565	0		3.263692626953125	-0.15672105407714843	0		4.4264111328125	0.007017495155334473	0		5.9053291015625	0.307126953125	0		-0.21531523132324218	5.97573828125	0		
-0.07309767913818359	0.010471723556518554	0		0.48885690307617186	-2.3446767578125	0		-0.9823667602539062	0.3178392333984375	0		-0.4371732482910156	-2.593114013671875	0		1.616286376953125	-0.3591974792480469	0		3.251314453125	-0.17994192504882814	0		4.4292255859375	-0.004483047008514404	0		5.90164111328125	0.2890863647460937	0		-0.2160962677001953	5.97646630859375	0		
0.014612972259521484	-0.008231240272521973	0		0.5396908569335938	-2.3498173828125	0		-0.983349365234375	0.31857330322265626	0		-0.4701800231933594	-2.586895263671875	0		1.590234619140625	-0.36116375732421874	0		3.266121826171875	-0.19161485290527344	0		4.42212158203125	-0.010852441787719727	0		5.91240771484375	0.299859130859375	0		-0.21687065124511717	5.977171875	0		
0.01363057041168213	-0.007561415195465088	0		0.46278890991210936	-2.337965087890625	0		-1.0542474365234376	0.3243882141113281	0		-0.45837112426757814	-2.593412109375	0		1.588001708984375	-0.3755350341796875	0		3.2858134765625	-0.21139639282226563	0		4.4268056640625	-0.03143950080871582	0		5.91170458984375	0.3006363220214844	0		-0.2517045440673828	5.9733896484375	0		
0.015720030784606934	-0.00397181510925293	0		0.4917716369628906	-2.33582080078125	0		-1.0551927490234374	0.3250658874511719	0		-0.499119384765625	-2.57312451171875	0		1.5870301513671874	-0.3749565124511719	0		3.271992431640625	-0.20167642211914064	0		4.42994189453125	-0.025031784057617187	0		5.91835498046875	0.3322171325683594	0		-0.25243785095214843	5.974037109375	0		
0.01886018943786621	5.658980011940002E-4	0		0.4887301635742187	-2.33720458984375	0		-1.0561033935546875	0.32570767211914065	0		-0.4312423095703125	-2.579600341796875	0		1.5999483642578125	-0.38363482666015625	0		3.28264697265625	-0.22738360595703125	0		4.43468310546875	-0.04568732452392578	0		5.9176953125	0.33287664794921873	0		-0.2190626678466797	5.979107421875	0		
0.010867487907409669	-0.005757881164550781	0		0.47685980224609376	-2.3304833984375	0		-0.9938380737304687	0.33430502319335936	0		-0.5119851989746094	-2.563746337890625	0		1.58702197265625	-0.38493731689453126	0		3.295739013671875	-0.2281622772216797	0		4.42280078125	-0.045109615325927735	0		5.92002001953125	0.3489356994628906	0		-0.08737617492675781	6.000572265625	0		
